<svg width="24" height="24" viewBox="0 0 24 24" fill="none" xmlns="http://www.w3.org/2000/svg">
<mask id="path-1-inside-1_8781_6662" fill="white">
<path fill-rule="evenodd" clip-rule="evenodd" d="M11.9927 2.07349C12.2136 2.07316 12.3929 2.25197 12.3933 2.47289L12.3933 2.47349H15.144C15.3649 2.47349 15.544 2.65257 15.544 2.87349V4.49091C15.544 4.71182 15.3649 4.89091 15.144 4.89091H12.3969L12.3981 5.71825H16.6323C17.0741 5.71825 17.432 6.07632 17.4321 6.51806V20.6265H18.0024C18.2786 20.6265 18.5024 20.8503 18.5024 21.1265V21.4263C18.5024 21.7024 18.2786 21.9263 18.0024 21.9263H14.2876V17.8315H9.71338V21.9263H5.98975C5.7136 21.9263 5.48975 21.7024 5.48975 21.4263V21.1265C5.48975 20.8503 5.7136 20.6265 5.98975 20.6265H6.56787V6.51806C6.56798 6.07632 6.92591 5.71825 7.36768 5.71825H11.5981L11.5933 2.47409C11.5929 2.25317 11.7717 2.07382 11.9927 2.07349ZM8.40039 7.45731C8.40039 7.34686 8.48993 7.25731 8.60039 7.25731H9.46039C9.57085 7.25731 9.66039 7.34686 9.66039 7.45731V9.27629C9.66039 9.38675 9.57085 9.47629 9.46039 9.47629H8.60039C8.48993 9.47629 8.40039 9.38675 8.40039 9.27629V7.45731ZM11.3701 7.45731C11.3701 7.34686 11.4597 7.25731 11.5701 7.25731H12.4301C12.5406 7.25731 12.6301 7.34686 12.6301 7.45731V9.27629C12.6301 9.38675 12.5406 9.47629 12.4301 9.47629H11.5701C11.4597 9.47629 11.3701 9.38675 11.3701 9.27629V7.45731ZM14.5398 7.25731C14.4294 7.25731 14.3398 7.34686 14.3398 7.45731V9.27629C14.3398 9.38675 14.4294 9.47629 14.5398 9.47629H15.3998C15.5103 9.47629 15.5998 9.38675 15.5998 9.27629V7.45731C15.5998 7.34686 15.5103 7.25731 15.3998 7.25731H14.5398ZM8.40039 10.6763C8.40039 10.5658 8.48993 10.4763 8.60039 10.4763H9.46039C9.57085 10.4763 9.66039 10.5658 9.66039 10.6763V12.4953C9.66039 12.6057 9.57085 12.6953 9.46039 12.6953H8.60039C8.48993 12.6953 8.40039 12.6057 8.40039 12.4953V10.6763ZM11.5701 10.4763C11.4597 10.4763 11.3701 10.5658 11.3701 10.6763V12.4953C11.3701 12.6057 11.4597 12.6953 11.5701 12.6953H12.4301C12.5406 12.6953 12.6301 12.6057 12.6301 12.4953V10.6763C12.6301 10.5658 12.5406 10.4763 12.4301 10.4763H11.5701ZM14.3398 10.6763C14.3398 10.5658 14.4294 10.4763 14.5398 10.4763H15.3998C15.5103 10.4763 15.5998 10.5658 15.5998 10.6763V12.4953C15.5998 12.6057 15.5103 12.6953 15.3998 12.6953H14.5398C14.4294 12.6953 14.3398 12.6057 14.3398 12.4953V10.6763ZM8.60039 13.6953C8.48993 13.6953 8.40039 13.7848 8.40039 13.8953V15.7143C8.40039 15.8247 8.48993 15.9143 8.60039 15.9143H9.46039C9.57085 15.9143 9.66039 15.8247 9.66039 15.7143V13.8953C9.66039 13.7848 9.57085 13.6953 9.46039 13.6953H8.60039ZM11.3701 13.8953C11.3701 13.7848 11.4597 13.6953 11.5701 13.6953H12.4301C12.5406 13.6953 12.6301 13.7848 12.6301 13.8953V15.7143C12.6301 15.8247 12.5406 15.9143 12.4301 15.9143H11.5701C11.4597 15.9143 11.3701 15.8247 11.3701 15.7143V13.8953ZM14.5398 13.6953C14.4294 13.6953 14.3398 13.7848 14.3398 13.8953V15.7143C14.3398 15.8247 14.4294 15.9143 14.5398 15.9143H15.3998C15.5103 15.9143 15.5998 15.8247 15.5998 15.7143V13.8953C15.5998 13.7848 15.5103 13.6953 15.3998 13.6953H14.5398Z"/>
</mask>
<path fill-rule="evenodd" clip-rule="evenodd" d="M11.9927 2.07349C12.2136 2.07316 12.3929 2.25197 12.3933 2.47289L12.3933 2.47349H15.144C15.3649 2.47349 15.544 2.65257 15.544 2.87349V4.49091C15.544 4.71182 15.3649 4.89091 15.144 4.89091H12.3969L12.3981 5.71825H16.6323C17.0741 5.71825 17.432 6.07632 17.4321 6.51806V20.6265H18.0024C18.2786 20.6265 18.5024 20.8503 18.5024 21.1265V21.4263C18.5024 21.7024 18.2786 21.9263 18.0024 21.9263H14.2876V17.8315H9.71338V21.9263H5.98975C5.7136 21.9263 5.48975 21.7024 5.48975 21.4263V21.1265C5.48975 20.8503 5.7136 20.6265 5.98975 20.6265H6.56787V6.51806C6.56798 6.07632 6.92591 5.71825 7.36768 5.71825H11.5981L11.5933 2.47409C11.5929 2.25317 11.7717 2.07382 11.9927 2.07349ZM8.40039 7.45731C8.40039 7.34686 8.48993 7.25731 8.60039 7.25731H9.46039C9.57085 7.25731 9.66039 7.34686 9.66039 7.45731V9.27629C9.66039 9.38675 9.57085 9.47629 9.46039 9.47629H8.60039C8.48993 9.47629 8.40039 9.38675 8.40039 9.27629V7.45731ZM11.3701 7.45731C11.3701 7.34686 11.4597 7.25731 11.5701 7.25731H12.4301C12.5406 7.25731 12.6301 7.34686 12.6301 7.45731V9.27629C12.6301 9.38675 12.5406 9.47629 12.4301 9.47629H11.5701C11.4597 9.47629 11.3701 9.38675 11.3701 9.27629V7.45731ZM14.5398 7.25731C14.4294 7.25731 14.3398 7.34686 14.3398 7.45731V9.27629C14.3398 9.38675 14.4294 9.47629 14.5398 9.47629H15.3998C15.5103 9.47629 15.5998 9.38675 15.5998 9.27629V7.45731C15.5998 7.34686 15.5103 7.25731 15.3998 7.25731H14.5398ZM8.40039 10.6763C8.40039 10.5658 8.48993 10.4763 8.60039 10.4763H9.46039C9.57085 10.4763 9.66039 10.5658 9.66039 10.6763V12.4953C9.66039 12.6057 9.57085 12.6953 9.46039 12.6953H8.60039C8.48993 12.6953 8.40039 12.6057 8.40039 12.4953V10.6763ZM11.5701 10.4763C11.4597 10.4763 11.3701 10.5658 11.3701 10.6763V12.4953C11.3701 12.6057 11.4597 12.6953 11.5701 12.6953H12.4301C12.5406 12.6953 12.6301 12.6057 12.6301 12.4953V10.6763C12.6301 10.5658 12.5406 10.4763 12.4301 10.4763H11.5701ZM14.3398 10.6763C14.3398 10.5658 14.4294 10.4763 14.5398 10.4763H15.3998C15.5103 10.4763 15.5998 10.5658 15.5998 10.6763V12.4953C15.5998 12.6057 15.5103 12.6953 15.3998 12.6953H14.5398C14.4294 12.6953 14.3398 12.6057 14.3398 12.4953V10.6763ZM8.60039 13.6953C8.48993 13.6953 8.40039 13.7848 8.40039 13.8953V15.7143C8.40039 15.8247 8.48993 15.9143 8.60039 15.9143H9.46039C9.57085 15.9143 9.66039 15.8247 9.66039 15.7143V13.8953C9.66039 13.7848 9.57085 13.6953 9.46039 13.6953H8.60039ZM11.3701 13.8953C11.3701 13.7848 11.4597 13.6953 11.5701 13.6953H12.4301C12.5406 13.6953 12.6301 13.7848 12.6301 13.8953V15.7143C12.6301 15.8247 12.5406 15.9143 12.4301 15.9143H11.5701C11.4597 15.9143 11.3701 15.8247 11.3701 15.7143V13.8953ZM14.5398 13.6953C14.4294 13.6953 14.3398 13.7848 14.3398 13.8953V15.7143C14.3398 15.8247 14.4294 15.9143 14.5398 15.9143H15.3998C15.5103 15.9143 15.5998 15.8247 15.5998 15.7143V13.8953C15.5998 13.7848 15.5103 13.6953 15.3998 13.6953H14.5398Z" fill="#F76626"/>
<path d="M12.3933 2.47289L13.3933 2.47209L13.3933 2.47138L12.3933 2.47289ZM11.9927 2.07349L11.9912 1.07349L11.9912 1.07349L11.9927 2.07349ZM12.3933 2.47349L11.3933 2.47428L11.3941 3.47349H12.3933V2.47349ZM12.3969 4.89091V3.89091H11.3954L11.3969 4.89241L12.3969 4.89091ZM12.3981 5.71825L11.3981 5.71976L11.3996 6.71825H12.3981V5.71825ZM17.4321 6.51806L18.4321 6.51806L18.4321 6.51782L17.4321 6.51806ZM17.4321 20.6265H16.4321V21.6265H17.4321V20.6265ZM14.2876 21.9263H13.2876V22.9263H14.2876V21.9263ZM14.2876 17.8315H15.2876V16.8315H14.2876V17.8315ZM9.71338 17.8315V16.8315H8.71338V17.8315H9.71338ZM9.71338 21.9263V22.9263H10.7134V21.9263H9.71338ZM6.56787 20.6265V21.6265H7.56787V20.6265H6.56787ZM6.56787 6.51806L5.56787 6.51782V6.51806H6.56787ZM11.5981 5.71825V6.71825H12.5996L12.5981 5.71675L11.5981 5.71825ZM11.5933 2.47409L10.5933 2.47558L10.5933 2.47559L11.5933 2.47409ZM12.3933 2.47289L13.3933 2.47138C13.3921 1.69819 12.7644 1.07233 11.9912 1.07349L11.9927 2.07349L11.9942 3.07349C11.6628 3.07398 11.3938 2.80576 11.3933 2.47439L12.3933 2.47289ZM12.3933 2.47349L13.3933 2.47269L13.3933 2.47209L12.3933 2.47289L11.3933 2.47368L11.3933 2.47428L12.3933 2.47349ZM15.144 2.47349V1.47349H12.3933V2.47349V3.47349H15.144V2.47349ZM15.544 2.87349H16.544C16.544 2.10029 15.9172 1.47349 15.144 1.47349V2.47349V3.47349C14.8127 3.47349 14.544 3.20486 14.544 2.87349H15.544ZM15.544 4.49091H16.544V2.87349H15.544H14.544V4.49091H15.544ZM15.144 4.89091V5.89091C15.9172 5.89091 16.544 5.26411 16.544 4.49091H15.544H14.544C14.544 4.15954 14.8127 3.89091 15.144 3.89091V4.89091ZM12.3969 4.89091V5.89091H15.144V4.89091V3.89091H12.3969V4.89091ZM12.3981 5.71825L13.3981 5.71675L13.3969 4.88941L12.3969 4.89091L11.3969 4.89241L11.3981 5.71976L12.3981 5.71825ZM16.6323 5.71825V4.71825H12.3981V5.71825V6.71825H16.6323V5.71825ZM17.4321 6.51806L18.4321 6.51782C18.4319 5.52422 17.6266 4.71825 16.6323 4.71825V5.71825V6.71825C16.5216 6.71825 16.4322 6.62842 16.4321 6.5183L17.4321 6.51806ZM17.4321 20.6265H18.4321V6.51806H17.4321H16.4321V20.6265H17.4321ZM18.0024 20.6265V19.6265H17.4321V20.6265V21.6265H18.0024V20.6265ZM18.5024 21.1265H19.5024C19.5024 20.298 18.8309 19.6265 18.0024 19.6265V20.6265V21.6265C17.7263 21.6265 17.5024 21.4026 17.5024 21.1265H18.5024ZM18.5024 21.4263H19.5024V21.1265H18.5024H17.5024V21.4263H18.5024ZM18.0024 21.9263V22.9263C18.8309 22.9263 19.5024 22.2547 19.5024 21.4263H18.5024H17.5024C17.5024 21.1501 17.7263 20.9263 18.0024 20.9263V21.9263ZM14.2876 21.9263V22.9263H18.0024V21.9263V20.9263H14.2876V21.9263ZM14.2876 17.8315H13.2876V21.9263H14.2876H15.2876V17.8315H14.2876ZM9.71338 17.8315V18.8315H14.2876V17.8315V16.8315H9.71338V17.8315ZM9.71338 21.9263H10.7134V17.8315H9.71338H8.71338V21.9263H9.71338ZM5.98975 21.9263V22.9263H9.71338V21.9263V20.9263H5.98975V21.9263ZM5.48975 21.4263H4.48975C4.48975 22.2547 5.16132 22.9263 5.98975 22.9263V21.9263V20.9263C6.26589 20.9263 6.48975 21.1501 6.48975 21.4263H5.48975ZM5.48975 21.1265H4.48975V21.4263H5.48975H6.48975V21.1265H5.48975ZM5.98975 20.6265V19.6265C5.16132 19.6265 4.48975 20.298 4.48975 21.1265H5.48975H6.48975C6.48975 21.4026 6.26589 21.6265 5.98975 21.6265V20.6265ZM6.56787 20.6265V19.6265H5.98975V20.6265V21.6265H6.56787V20.6265ZM6.56787 6.51806H5.56787V20.6265H6.56787H7.56787V6.51806H6.56787ZM7.36768 5.71825V4.71825C6.37339 4.71825 5.56811 5.52422 5.56787 6.51782L6.56787 6.51806L7.56787 6.5183C7.56784 6.62842 7.47844 6.71825 7.36768 6.71825V5.71825ZM11.5981 5.71825V4.71825H7.36768V5.71825V6.71825H11.5981V5.71825ZM11.5933 2.47409L10.5933 2.47559L10.5981 5.71976L11.5981 5.71825L12.5981 5.71675L12.5933 2.47259L11.5933 2.47409ZM11.9927 2.07349L11.9912 1.07349C11.218 1.07465 10.5921 1.70239 10.5933 2.47558L11.5933 2.47409L12.5933 2.47259C12.5938 2.80396 12.3255 3.07299 11.9942 3.07349L11.9927 2.07349ZM8.60039 7.25731V6.25731C7.93765 6.25731 7.40039 6.79457 7.40039 7.45731H8.40039H9.40039C9.40039 7.89914 9.04222 8.25731 8.60039 8.25731V7.25731ZM9.46039 7.25731V6.25731H8.60039V7.25731V8.25731H9.46039V7.25731ZM9.66039 7.45731H10.6604C10.6604 6.79457 10.1231 6.25731 9.46039 6.25731V7.25731V8.25731C9.01857 8.25731 8.66039 7.89914 8.66039 7.45731H9.66039ZM9.66039 9.27629H10.6604V7.45731H9.66039H8.66039V9.27629H9.66039ZM9.46039 9.47629V10.4763C10.1231 10.4763 10.6604 9.93904 10.6604 9.27629H9.66039H8.66039C8.66039 8.83447 9.01856 8.47629 9.46039 8.47629V9.47629ZM8.60039 9.47629V10.4763H9.46039V9.47629V8.47629H8.60039V9.47629ZM8.40039 9.27629H7.40039C7.40039 9.93904 7.93765 10.4763 8.60039 10.4763V9.47629V8.47629C9.04222 8.47629 9.40039 8.83447 9.40039 9.27629H8.40039ZM8.40039 7.45731H7.40039V9.27629H8.40039H9.40039V7.45731H8.40039ZM11.5701 7.25731V6.25731C10.9074 6.25731 10.3701 6.79457 10.3701 7.45731H11.3701H12.3701C12.3701 7.89914 12.0119 8.25731 11.5701 8.25731V7.25731ZM12.4301 7.25731V6.25731H11.5701V7.25731V8.25731H12.4301V7.25731ZM12.6301 7.45731H13.6301C13.6301 6.79457 13.0929 6.25731 12.4301 6.25731V7.25731V8.25731C11.9883 8.25731 11.6301 7.89914 11.6301 7.45731H12.6301ZM12.6301 9.27629H13.6301V7.45731H12.6301H11.6301V9.27629H12.6301ZM12.4301 9.47629V10.4763C13.0929 10.4763 13.6301 9.93904 13.6301 9.27629H12.6301H11.6301C11.6301 8.83447 11.9883 8.47629 12.4301 8.47629V9.47629ZM11.5701 9.47629V10.4763H12.4301V9.47629V8.47629H11.5701V9.47629ZM11.3701 9.27629H10.3701C10.3701 9.93904 10.9074 10.4763 11.5701 10.4763V9.47629V8.47629C12.0119 8.47629 12.3701 8.83447 12.3701 9.27629H11.3701ZM11.3701 7.45731H10.3701V9.27629H11.3701H12.3701V7.45731H11.3701ZM14.3398 7.45731H15.3398C15.3398 7.89914 14.9817 8.25731 14.5398 8.25731V7.25731V6.25731C13.8771 6.25731 13.3398 6.79458 13.3398 7.45731H14.3398ZM14.3398 9.27629H15.3398V7.45731H14.3398H13.3398V9.27629H14.3398ZM14.5398 9.47629V8.47629C14.9817 8.47629 15.3398 8.83446 15.3398 9.27629H14.3398H13.3398C13.3398 9.93904 13.8771 10.4763 14.5398 10.4763V9.47629ZM15.3998 9.47629V8.47629H14.5398V9.47629V10.4763H15.3998V9.47629ZM15.5998 9.27629H14.5998C14.5998 8.83446 14.958 8.47629 15.3998 8.47629V9.47629V10.4763C16.0626 10.4763 16.5998 9.93904 16.5998 9.27629H15.5998ZM15.5998 7.45731H14.5998V9.27629H15.5998H16.5998V7.45731H15.5998ZM15.3998 7.25731V8.25731C14.958 8.25731 14.5998 7.89914 14.5998 7.45731H15.5998H16.5998C16.5998 6.79457 16.0626 6.25731 15.3998 6.25731V7.25731ZM14.5398 7.25731V8.25731H15.3998V7.25731V6.25731H14.5398V7.25731ZM8.60039 10.4763V9.4763C7.93765 9.4763 7.40039 10.0136 7.40039 10.6763H8.40039H9.40039C9.40039 11.1181 9.04222 11.4763 8.60039 11.4763V10.4763ZM9.46039 10.4763V9.4763H8.60039V10.4763V11.4763H9.46039V10.4763ZM9.66039 10.6763H10.6604C10.6604 10.0136 10.1231 9.4763 9.46039 9.4763V10.4763V11.4763C9.01857 11.4763 8.66039 11.1181 8.66039 10.6763H9.66039ZM9.66039 12.4953H10.6604V10.6763H9.66039H8.66039V12.4953H9.66039ZM9.46039 12.6953V13.6953C10.1231 13.6953 10.6604 13.158 10.6604 12.4953H9.66039H8.66039C8.66039 12.0534 9.01857 11.6953 9.46039 11.6953V12.6953ZM8.60039 12.6953V13.6953H9.46039V12.6953V11.6953H8.60039V12.6953ZM8.40039 12.4953H7.40039C7.40039 13.158 7.93765 13.6953 8.60039 13.6953V12.6953V11.6953C9.04221 11.6953 9.40039 12.0534 9.40039 12.4953H8.40039ZM8.40039 10.6763H7.40039V12.4953H8.40039H9.40039V10.6763H8.40039ZM11.3701 10.6763H12.3701C12.3701 11.1181 12.0119 11.4763 11.5701 11.4763V10.4763V9.4763C10.9074 9.4763 10.3701 10.0136 10.3701 10.6763H11.3701ZM11.3701 12.4953H12.3701V10.6763H11.3701H10.3701V12.4953H11.3701ZM11.5701 12.6953V11.6953C12.0119 11.6953 12.3701 12.0534 12.3701 12.4953H11.3701H10.3701C10.3701 13.158 10.9074 13.6953 11.5701 13.6953V12.6953ZM12.4301 12.6953V11.6953H11.5701V12.6953V13.6953H12.4301V12.6953ZM12.6301 12.4953H11.6301C11.6301 12.0534 11.9883 11.6953 12.4301 11.6953V12.6953V13.6953C13.0929 13.6953 13.6301 13.158 13.6301 12.4953H12.6301ZM12.6301 10.6763H11.6301V12.4953H12.6301H13.6301V10.6763H12.6301ZM12.4301 10.4763V11.4763C11.9883 11.4763 11.6301 11.1181 11.6301 10.6763H12.6301H13.6301C13.6301 10.0136 13.0929 9.4763 12.4301 9.4763V10.4763ZM11.5701 10.4763V11.4763H12.4301V10.4763V9.4763H11.5701V10.4763ZM14.5398 10.4763V9.4763C13.8771 9.4763 13.3398 10.0136 13.3398 10.6763H14.3398H15.3398C15.3398 11.1181 14.9817 11.4763 14.5398 11.4763V10.4763ZM15.3998 10.4763V9.4763H14.5398V10.4763V11.4763H15.3998V10.4763ZM15.5998 10.6763H16.5998C16.5998 10.0136 16.0626 9.4763 15.3998 9.4763V10.4763V11.4763C14.958 11.4763 14.5998 11.1181 14.5998 10.6763H15.5998ZM15.5998 12.4953H16.5998V10.6763H15.5998H14.5998V12.4953H15.5998ZM15.3998 12.6953V13.6953C16.0626 13.6953 16.5998 13.158 16.5998 12.4953H15.5998H14.5998C14.5998 12.0534 14.958 11.6953 15.3998 11.6953V12.6953ZM14.5398 12.6953V13.6953H15.3998V12.6953V11.6953H14.5398V12.6953ZM14.3398 12.4953H13.3398C13.3398 13.158 13.8771 13.6953 14.5398 13.6953V12.6953V11.6953C14.9817 11.6953 15.3398 12.0534 15.3398 12.4953H14.3398ZM14.3398 10.6763H13.3398V12.4953H14.3398H15.3398V10.6763H14.3398ZM8.40039 13.8953H9.40039C9.40039 14.3371 9.04222 14.6953 8.60039 14.6953V13.6953V12.6953C7.93765 12.6953 7.40039 13.2325 7.40039 13.8953H8.40039ZM8.40039 15.7143H9.40039V13.8953H8.40039H7.40039V15.7143H8.40039ZM8.60039 15.9143V14.9143C9.04221 14.9143 9.40039 15.2724 9.40039 15.7143H8.40039H7.40039C7.40039 16.377 7.93765 16.9143 8.60039 16.9143V15.9143ZM9.46039 15.9143V14.9143H8.60039V15.9143V16.9143H9.46039V15.9143ZM9.66039 15.7143H8.66039C8.66039 15.2724 9.01857 14.9143 9.46039 14.9143V15.9143V16.9143C10.1231 16.9143 10.6604 16.377 10.6604 15.7143H9.66039ZM9.66039 13.8953H8.66039V15.7143H9.66039H10.6604V13.8953H9.66039ZM9.46039 13.6953V14.6953C9.01857 14.6953 8.66039 14.3371 8.66039 13.8953H9.66039H10.6604C10.6604 13.2325 10.1231 12.6953 9.46039 12.6953V13.6953ZM8.60039 13.6953V14.6953H9.46039V13.6953V12.6953H8.60039V13.6953ZM11.5701 13.6953V12.6953C10.9074 12.6953 10.3701 13.2325 10.3701 13.8953H11.3701H12.3701C12.3701 14.3371 12.0119 14.6953 11.5701 14.6953V13.6953ZM12.4301 13.6953V12.6953H11.5701V13.6953V14.6953H12.4301V13.6953ZM12.6301 13.8953H13.6301C13.6301 13.2325 13.0929 12.6953 12.4301 12.6953V13.6953V14.6953C11.9883 14.6953 11.6301 14.3371 11.6301 13.8953H12.6301ZM12.6301 15.7143H13.6301V13.8953H12.6301H11.6301V15.7143H12.6301ZM12.4301 15.9143V16.9143C13.0929 16.9143 13.6301 16.377 13.6301 15.7143H12.6301H11.6301C11.6301 15.2724 11.9883 14.9143 12.4301 14.9143V15.9143ZM11.5701 15.9143V16.9143H12.4301V15.9143V14.9143H11.5701V15.9143ZM11.3701 15.7143H10.3701C10.3701 16.377 10.9074 16.9143 11.5701 16.9143V15.9143V14.9143C12.0119 14.9143 12.3701 15.2724 12.3701 15.7143H11.3701ZM11.3701 13.8953H10.3701V15.7143H11.3701H12.3701V13.8953H11.3701ZM14.3398 13.8953H15.3398C15.3398 14.3371 14.9817 14.6953 14.5398 14.6953V13.6953V12.6953C13.8771 12.6953 13.3398 13.2325 13.3398 13.8953H14.3398ZM14.3398 15.7143H15.3398V13.8953H14.3398H13.3398V15.7143H14.3398ZM14.5398 15.9143V14.9143C14.9817 14.9143 15.3398 15.2724 15.3398 15.7143H14.3398H13.3398C13.3398 16.377 13.8771 16.9143 14.5398 16.9143V15.9143ZM15.3998 15.9143V14.9143H14.5398V15.9143V16.9143H15.3998V15.9143ZM15.5998 15.7143H14.5998C14.5998 15.2724 14.958 14.9143 15.3998 14.9143V15.9143V16.9143C16.0626 16.9143 16.5998 16.377 16.5998 15.7143H15.5998ZM15.5998 13.8953H14.5998V15.7143H15.5998H16.5998V13.8953H15.5998ZM15.3998 13.6953V14.6953C14.958 14.6953 14.5998 14.3371 14.5998 13.8953H15.5998H16.5998C16.5998 13.2325 16.0626 12.6953 15.3998 12.6953V13.6953ZM14.5398 13.6953V14.6953H15.3998V13.6953V12.6953H14.5398V13.6953Z" fill="#F76626" mask="url(#path-1-inside-1_8781_6662)"/>
</svg>
